<?xml version="1.0" encoding="iso-8859-1"?>
<!-- Generator: Adobe Illustrator 17.1.0, SVG Export Plug-In . SVG Version: 6.00 Build 0)  -->
<!DOCTYPE svg PUBLIC "-//W3C//DTD SVG 1.1//EN" "http://www.w3.org/Graphics/SVG/1.1/DTD/svg11.dtd">
<svg version="1.1" id="Capa_1" xmlns="http://www.w3.org/2000/svg" xmlns:xlink="http://www.w3.org/1999/xlink" x="0px" y="0px"
	 viewBox="0 0 402.938 402.938" style="enable-background:new 0 0 402.938 402.938;" xml:space="preserve">
<path d="M401.785,33.437C399.279,18.683,389.61,16.48,384.07,16.48c-22.935,0-65.053,36.684-109.644,75.521
	c-18.23,15.879-37.083,32.298-53.502,45.047c-5.858,4.548-11.803,9.103-18.097,13.924c-31.276,23.961-66.726,51.12-94.161,80.356
	c-26.886,28.651-42.592,55.619-47.675,81.981L4.121,364.682c-5.123,4.628-5.524,12.532-0.897,17.655
	c2.468,2.732,5.867,4.121,9.28,4.121c2.987,0,5.984-1.064,8.375-3.224l47.817-43.194c2.309,0.634,5.016,0.963,8.19,0.963
	c27.39,0,93.534-24.866,153.857-57.841l6.043-3.304L226.109,269.8l17.889,5.932l1.947-1.13
	c15.867-9.211,30.165-18.409,42.496-27.338c2.189-1.586,4.45-3.292,7.114-5.372l3.871-3.021l-11.224-14.93l20.26,7.212l2.218-2.021
	c15.51-14.131,29.805-30.467,42.486-48.554l2.428-3.462l-18.606-18.342l25.257,8.169l2.054-3.37
	C392.607,117.12,407.321,66.039,401.785,33.437z"/>
<g>
</g>
<g>
</g>
<g>
</g>
<g>
</g>
<g>
</g>
<g>
</g>
<g>
</g>
<g>
</g>
<g>
</g>
<g>
</g>
<g>
</g>
<g>
</g>
<g>
</g>
<g>
</g>
<g>
</g>
</svg>
